<?xml version="1.0" encoding="UTF-8"?>
<svg width="545px" height="159px" viewBox="0 0 545 159" version="1.1" xmlns="http://www.w3.org/2000/svg" xmlns:xlink="http://www.w3.org/1999/xlink">
    <!-- Generator: Sketch 59.1 (86144) - https://sketch.com -->
    <title>Group 11@1x</title>
    <desc>Created with Sketch.</desc>
    <g id="🚀-Style-Guide" stroke="none" stroke-width="1" fill="none" fill-rule="evenodd">
        <g id="Group-11">
            <g id="main-logo-copy">
                <path d="M119.409696,136.039334 L66.9217077,158.07765 C64.4263771,159.117354 61.7589548,157.114646 61.7589548,154.225632 L63.342199,38.3923794 C63.342199,35.5204101 66.0698534,33.5773568 68.5049519,34.6596716 L120.407828,57.4308937 C121.887271,58.1326314 122.808661,59.6335143 122.75688,61.2573453 L121.81898,132.289582 C121.826962,133.899044 120.88516,135.364841 119.409696,136.039334 Z" id="stand" fill="#7DCCC8" fill-rule="nonzero"></path>
                <path d="M4.86723721,22.7332695 L89.6566635,0.54475466 C92.6688285,-0.247096923 95.7931946,1.55332352 95.7589548,4.06224274 L94.1878574,120.75616 C94.1878574,123.256744 91.0117062,124.982147 88.0168028,124.140284 L3.84879744,100.443083 C2.12317305,100.076252 0.86070059,98.6458597 0.75895475,96.9422658 L1.7169786,26.1340637 C1.85885658,24.4465922 3.14644495,23.0566037 4.86723721,22.7332695 Z" id="monitor" fill="#38B2AC"></path>
            </g>
            <path d="M229.758955,60.356 L200.558955,127.356 L185.686058,127.356 L156.758955,60.356 L174.77017,60.356 L193.600076,107.722803 L212.975777,60.356 L229.758955,60.356 Z M267.827091,128.356 C261.01343,128.356 255.04021,126.934927 249.907251,124.092739 C244.774293,121.25055 240.799717,117.170696 237.983404,111.853053 C235.16709,106.53541 233.758955,100.346867 233.758955,93.2872377 C233.758955,86.2276084 235.16709,80.0619858 237.983404,74.7901847 C240.799717,69.5183836 244.774293,65.4614497 249.907251,62.6192613 C255.04021,59.7770729 261.01343,58.356 267.827091,58.356 C274.640752,58.356 280.613973,59.7770729 285.746931,62.6192613 C290.879889,65.4614497 294.831753,69.5183836 297.602642,74.7901847 C300.373531,80.0619858 301.758955,86.2276084 301.758955,93.2872377 C301.758955,100.346867 300.373531,106.53541 297.602642,111.853053 C294.831753,117.170696 290.879889,121.25055 285.746931,124.092739 C280.613973,126.934927 274.640752,128.356 267.827091,128.356 Z M267.690682,114.356 C273.243588,114.356 277.476477,112.541672 280.389477,108.912962 C283.302477,105.284252 284.758955,99.9319847 284.758955,92.856 C284.758955,85.870733 283.302477,80.541145 280.389477,76.8670759 C277.476477,73.1930069 273.289103,71.356 267.827228,71.356 C262.365353,71.356 258.155221,73.1930069 255.196706,76.8670759 C252.23819,80.541145 250.758955,85.870733 250.758955,92.856 C250.758955,99.9319847 252.215433,105.284252 255.128433,108.912962 C258.041433,112.541672 262.228807,114.356 267.690682,114.356 Z M315.758955,30.356 L332.758955,30.356 L332.758955,127.356 L315.758955,127.356 L315.758955,30.356 Z M379.034418,58.356 C388.412551,58.356 395.377759,60.648053 399.930251,65.2322279 C404.482743,69.8163798 406.758955,76.8759261 406.758955,86.4110098 L406.758955,127.255804 L390.50664,127.255804 L390.50664,116.941462 C388.958793,120.517118 386.523246,123.313423 383.199927,125.33046 C379.876608,127.347497 376.02981,128.356 371.659418,128.356 C367.197976,128.356 363.146319,127.439179 359.504325,125.605509 C355.862332,123.771839 352.994305,121.250581 350.900158,118.041658 C348.806012,114.832736 347.758955,111.257133 347.758955,107.314743 C347.758955,102.363834 349.010871,98.4673294 351.514742,95.6251552 C354.018612,92.7829668 358.093031,90.7201191 363.738121,89.4365501 C369.030393,88.2332042 376.203133,87.5939352 385.256533,87.5187271 L390.50664,87.5112063 L390.50664,84.3481415 C390.50664,79.7639666 389.527869,76.4634102 387.570297,74.4463733 C385.612726,72.4293363 382.357743,71.420833 377.805251,71.420833 C374.254307,71.420833 370.544082,72.0396873 366.674464,73.2774145 C362.804846,74.5151417 359.003572,76.2341815 355.270529,78.4345855 L350.490436,66.6074735 C354.22348,64.2237026 358.730379,62.2525369 364.01127,60.6939175 C369.29216,59.135298 374.299826,58.356 379.034418,58.356 Z M375.376756,115.356 C379.9143,115.356 383.612344,113.851287 386.470997,110.841816 C389.32965,107.832344 390.758955,103.94704 390.758955,99.1857872 L390.758955,96.356 L388.308693,96.356 C382.228383,96.356 377.509408,96.6255009 374.151625,97.1645106 C370.793842,97.7035204 368.388979,98.6467734 366.936965,99.9942979 C365.484951,101.341822 364.758955,103.183411 364.758955,105.519121 C364.758955,108.393839 365.7572,110.751972 367.753719,112.593589 C369.750239,114.435205 372.291226,115.356 375.376756,115.356 Z M463.20437,58.356 C471.146185,58.356 477.057334,60.6513862 480.937994,65.2422275 C484.818654,69.8330459 486.758955,76.7651353 486.758955,86.0386347 L486.758955,127.356 L469.837557,127.356 L469.837557,87.0027066 C469.837557,81.7691475 468.867407,77.9588063 466.927077,75.5715689 C464.986747,73.1843314 461.940926,71.9907305 457.789522,71.9907305 C452.916136,71.9907305 449.012972,73.5515932 446.079915,76.6733653 C443.146859,79.7951374 441.680352,83.9727403 441.680352,89.2062994 L441.680352,127.356 L424.758955,127.356 L424.758955,60.0086946 L441.274239,60.0086946 L441.274239,70.0625868 C443.530436,66.2980969 446.553696,63.4059103 450.344108,61.3859401 C454.13452,59.3659699 458.421231,58.356 463.20437,58.356 Z M538.556708,114.608336 C540.534246,114.608336 542.601641,114.471266 544.758955,114.197121 L543.949966,126.944785 C541.253323,127.21893 538.781438,127.356 536.534236,127.356 C527.275762,127.356 520.44437,125.185721 516.039854,120.845097 C511.635337,116.504473 509.433112,110.039324 509.433112,101.449458 L509.433112,72.2531963 L496.758955,72.2531963 L496.758955,59.3684611 L509.433112,59.3684611 L509.433112,39.356 L526.287045,39.356 L526.287045,59.3684611 L543.680303,59.3684611 L543.680303,72.2531963 L526.287045,72.2531963 L526.287045,101.175315 C526.287045,110.130707 530.376891,114.608336 538.556708,114.608336 Z" id="volant-copy" fill="#333333" fill-rule="nonzero"></path>
        </g>
    </g>
</svg>