<?xml version="1.0" encoding="UTF-8"?>
<svg width="123px" height="159px" viewBox="0 0 123 159" version="1.1" xmlns="http://www.w3.org/2000/svg" xmlns:xlink="http://www.w3.org/1999/xlink">
    <!-- Generator: Sketch 59.1 (86144) - https://sketch.com -->
    <title>main-logo@1x</title>
    <desc>Created with Sketch.</desc>
    <g id="🚀-Style-Guide" stroke="none" stroke-width="1" fill="none" fill-rule="evenodd">
        <g id="main-logo">
            <path d="M119.409696,136.039334 L66.9217077,158.07765 C64.4263771,159.117354 61.7589548,157.114646 61.7589548,154.225632 L63.342199,38.3923794 C63.342199,35.5204101 66.0698534,33.5773568 68.5049519,34.6596716 L120.407828,57.4308937 C121.887271,58.1326314 122.808661,59.6335143 122.75688,61.2573453 L121.81898,132.289582 C121.826962,133.899044 120.88516,135.364841 119.409696,136.039334 Z" id="stand" fill="#7DCCC8" fill-rule="nonzero"></path>
            <path d="M4.86723721,22.7332695 L89.6566635,0.54475466 C92.6688285,-0.247096923 95.7931946,1.55332352 95.7589548,4.06224274 L94.1878574,120.75616 C94.1878574,123.256744 91.0117062,124.982147 88.0168028,124.140284 L3.84879744,100.443083 C2.12317305,100.076252 0.86070059,98.6458597 0.75895475,96.9422658 L1.7169786,26.1340637 C1.85885658,24.4465922 3.14644495,23.0566037 4.86723721,22.7332695 Z" id="monitor" fill="#38B2AC"></path>
        </g>
    </g>
</svg>