<?xml version="1.0" encoding="UTF-8"?>
<svg width="389px" height="233px" viewBox="0 0 389 233" version="1.1" xmlns="http://www.w3.org/2000/svg" xmlns:xlink="http://www.w3.org/1999/xlink">
    <!-- Generator: Sketch 59.1 (86144) - https://sketch.com -->
    <title>Group 11@1x</title>
    <desc>Created with Sketch.</desc>
    <g id="🚀-Style-Guide" stroke="none" stroke-width="1" fill="none" fill-rule="evenodd">
        <g id="Group-11" transform="translate(1.000000, 0.000000)">
            <g id="main-logo" transform="translate(131.000000, 0.000000)">
                <path d="M119.409696,136.039334 L66.9217077,158.07765 C64.4263771,159.117354 61.7589548,157.114646 61.7589548,154.225632 L63.342199,38.3923794 C63.342199,35.5204101 66.0698534,33.5773568 68.5049519,34.6596716 L120.407828,57.4308937 C121.887271,58.1326314 122.808661,59.6335143 122.75688,61.2573453 L121.81898,132.289582 C121.826962,133.899044 120.88516,135.364841 119.409696,136.039334 Z" id="stand" fill="#7DCCC8" fill-rule="nonzero"></path>
                <path d="M4.86723721,22.7332695 L89.6566635,0.54475466 C92.6688285,-0.247096923 95.7931946,1.55332352 95.7589548,4.06224274 L94.1878574,120.75616 C94.1878574,123.256744 91.0117062,124.982147 88.0168028,124.140284 L3.84879744,100.443083 C2.12317305,100.076252 0.86070059,98.6458597 0.75895475,96.9422658 L1.7169786,26.1340637 C1.85885658,24.4465922 3.14644495,23.0566037 4.86723721,22.7332695 Z" id="monitor" fill="#38B2AC"></path>
            </g>
            <path d="M72.7589548,164.356 L43.5589548,231.356 L28.6860576,231.356 L-0.24104525,164.356 L17.7701697,164.356 L36.6000762,211.722803 L55.9757772,164.356 L72.7589548,164.356 Z M110.827091,232.356 C104.01343,232.356 98.0402095,230.934927 92.9072513,228.092739 C87.7742931,225.25055 83.799717,221.170696 80.9834036,215.853053 C78.1670903,210.53541 76.7589548,204.346867 76.7589548,197.287238 C76.7589548,190.227608 78.1670903,184.061986 80.9834036,178.790185 C83.799717,173.518384 87.7742931,169.46145 92.9072513,166.619261 C98.0402095,163.777073 104.01343,162.356 110.827091,162.356 C117.640752,162.356 123.613973,163.777073 128.746931,166.619261 C133.879889,169.46145 137.831753,173.518384 140.602642,178.790185 C143.373531,184.061986 144.758955,190.227608 144.758955,197.287238 C144.758955,204.346867 143.373531,210.53541 140.602642,215.853053 C137.831753,221.170696 133.879889,225.25055 128.746931,228.092739 C123.613973,230.934927 117.640752,232.356 110.827091,232.356 Z M110.690682,218.356 C116.243588,218.356 120.476477,216.541672 123.389477,212.912962 C126.302477,209.284252 127.758955,203.931985 127.758955,196.856 C127.758955,189.870733 126.302477,184.541145 123.389477,180.867076 C120.476477,177.193007 116.289103,175.356 110.827228,175.356 C105.365353,175.356 101.155221,177.193007 98.1967058,180.867076 C95.2381903,184.541145 93.7589548,189.870733 93.7589548,196.856 C93.7589548,203.931985 95.2154328,209.284252 98.1284327,212.912962 C101.041433,216.541672 105.228807,218.356 110.690682,218.356 Z M158.758955,134.356 L175.758955,134.356 L175.758955,231.356 L158.758955,231.356 L158.758955,134.356 Z M222.034418,162.356 C231.412551,162.356 238.377759,164.648053 242.930251,169.232228 C247.482743,173.81638 249.758955,180.875926 249.758955,190.41101 L249.758955,231.255804 L233.50664,231.255804 L233.50664,220.941462 C231.958793,224.517118 229.523246,227.313423 226.199927,229.33046 C222.876608,231.347497 219.02981,232.356 214.659418,232.356 C210.197976,232.356 206.146319,231.439179 202.504325,229.605509 C198.862332,227.771839 195.994305,225.250581 193.900158,222.041658 C191.806012,218.832736 190.758955,215.257133 190.758955,211.314743 C190.758955,206.363834 192.010871,202.467329 194.514742,199.625155 C197.018612,196.782967 201.093031,194.720119 206.738121,193.43655 C212.030393,192.233204 219.203133,191.593935 228.256533,191.518727 L233.50664,191.511206 L233.50664,188.348141 C233.50664,183.763967 232.527869,180.46341 230.570297,178.446373 C228.612726,176.429336 225.357743,175.420833 220.805251,175.420833 C217.254307,175.420833 213.544082,176.039687 209.674464,177.277415 C205.804846,178.515142 202.003572,180.234182 198.270529,182.434585 L193.490436,170.607473 C197.22348,168.223703 201.730379,166.252537 207.01127,164.693917 C212.29216,163.135298 217.299826,162.356 222.034418,162.356 Z M218.376756,219.356 C222.9143,219.356 226.612344,217.851287 229.470997,214.841816 C232.32965,211.832344 233.758955,207.94704 233.758955,203.185787 L233.758955,200.356 L231.308693,200.356 C225.228383,200.356 220.509408,200.625501 217.151625,201.164511 C213.793842,201.70352 211.388979,202.646773 209.936965,203.994298 C208.484951,205.341822 207.758955,207.183411 207.758955,209.519121 C207.758955,212.393839 208.7572,214.751972 210.753719,216.593589 C212.750239,218.435205 215.291226,219.356 218.376756,219.356 Z M306.20437,162.356 C314.146185,162.356 320.057334,164.651386 323.937994,169.242228 C327.818654,173.833046 329.758955,180.765135 329.758955,190.038635 L329.758955,231.356 L312.837557,231.356 L312.837557,191.002707 C312.837557,185.769147 311.867407,181.958806 309.927077,179.571569 C307.986747,177.184331 304.940926,175.990731 300.789522,175.990731 C295.916136,175.990731 292.012972,177.551593 289.079915,180.673365 C286.146859,183.795137 284.680352,187.97274 284.680352,193.206299 L284.680352,231.356 L267.758955,231.356 L267.758955,164.008695 L284.274239,164.008695 L284.274239,174.062587 C286.530436,170.298097 289.553696,167.40591 293.344108,165.38594 C297.13452,163.36597 301.421231,162.356 306.20437,162.356 Z M381.556708,218.608336 C383.534246,218.608336 385.601641,218.471266 387.758955,218.197121 L386.949966,230.944785 C384.253323,231.21893 381.781438,231.356 379.534236,231.356 C370.275762,231.356 363.44437,229.185721 359.039854,224.845097 C354.635337,220.504473 352.433112,214.039324 352.433112,205.449458 L352.433112,176.253196 L339.758955,176.253196 L339.758955,163.368461 L352.433112,163.368461 L352.433112,143.356 L369.287045,143.356 L369.287045,163.368461 L386.680303,163.368461 L386.680303,176.253196 L369.287045,176.253196 L369.287045,205.175315 C369.287045,214.130707 373.376891,218.608336 381.556708,218.608336 Z" id="volant" fill="#333333" fill-rule="nonzero"></path>
        </g>
    </g>
</svg>